<svg clip-rule="evenodd" fill-rule="evenodd" stroke-linejoin="round" stroke-miterlimit="1.41421" viewBox="0 0 36 44" xmlns="http://www.w3.org/2000/svg" xmlns:xlink="http://www.w3.org/1999/xlink"><clipPath id="a"><path clip-rule="evenodd" d="m.076 0h35.65v43.775h-35.65z"/></clipPath><g clip-path="url(#a)"><ellipse cx="17.9" cy="16.232" fill="#fff" rx="9.18" ry="6.794"/><g fill-rule="nonzero"><path d="m17.902 22.566c-4.823 0-8.734-2.836-8.734-6.335s3.911-6.333 8.734-6.333c4.822 0 8.73 2.834 8.73 6.333s-3.908 6.335-8.73 6.335m0-22.566c-9.847 0-17.826 7.704-17.826 17.208 0 9.503 7.979 26.567 17.826 26.567 9.843 0 17.823-17.064 17.823-26.567 0-9.504-7.98-17.208-17.823-17.208" fill="#ffd100"/><path d="m20.926 16.231c0 1.671-1.353 3.025-3.024 3.025s-3.027-1.354-3.027-3.025 1.356-3.023 3.027-3.023 3.024 1.352 3.024 3.023"/></g></g></svg>